<?xml version="1.0" encoding="utf-8" standalone="no"?>
<!DOCTYPE svg PUBLIC "-//W3C//DTD SVG 1.1//EN"
  "http://www.w3.org/Graphics/SVG/1.1/DTD/svg11.dtd">
<svg xmlns:xlink="http://www.w3.org/1999/xlink" width="1418.4pt" height="676.8pt" viewBox="0 0 1418.4 676.8" xmlns="http://www.w3.org/2000/svg" version="1.1">
 <metadata>
  <rdf:RDF xmlns:dc="http://purl.org/dc/elements/1.1/" xmlns:cc="http://creativecommons.org/ns#" xmlns:rdf="http://www.w3.org/1999/02/22-rdf-syntax-ns#">
   <cc:Work>
    <dc:type rdf:resource="http://purl.org/dc/dcmitype/StillImage"/>
    <dc:date>2026-03-27T05:51:54.892127</dc:date>
    <dc:format>image/svg+xml</dc:format>
    <dc:creator>
     <cc:Agent>
      <dc:title>Matplotlib v3.9.2, https://matplotlib.org/</dc:title>
     </cc:Agent>
    </dc:creator>
   </cc:Work>
  </rdf:RDF>
 </metadata>
 <defs>
  <style type="text/css">*{stroke-linejoin: round; stroke-linecap: butt}</style>
 </defs>
 <g id="figure_1">
  <g id="patch_1">
   <path d="M 0 676.8 
L 1418.4 676.8 
L 1418.4 0 
L 0 0 
z
" style="fill: #ffffff"/>
  </g>
  <g id="axes_1">
   <g id="patch_2">
    <path d="M 78.804 653.7024 
L 637.596 653.7024 
Q 654.444 653.7024 654.444 645.7536 
L 654.444 577.5264 
Q 654.444 569.5776 637.596 569.5776 
L 78.804 569.5776 
Q 61.956 569.5776 61.956 577.5264 
L 61.956 645.7536 
Q 61.956 653.7024 78.804 653.7024 
z
" clip-path="url(#p071d2165dc)" style="fill: #fbfdff; stroke: #cbd5e1; stroke-linejoin: miter"/>
   </g>
   <g id="line2d_1">
    <path d="M 615.132 411.264 
L 615.132 384.768 
" clip-path="url(#p071d2165dc)" style="fill: none; stroke-dasharray: 7.2,5.4; stroke-dashoffset: 0; stroke: #94a3b8; stroke-width: 1.8"/>
   </g>
   <g id="line2d_2">
    <path d="M 615.132 384.768 
L 876.276 384.768 
" clip-path="url(#p071d2165dc)" style="fill: none; stroke-dasharray: 7.2,5.4; stroke-dashoffset: 0; stroke: #94a3b8; stroke-width: 1.8"/>
   </g>
   <g id="patch_3">
    <path d="M 876.276 388.768922 
Q 876.276 398.016014 876.276 405.250644 
" clip-path="url(#p071d2165dc)" style="fill: none; stroke-dasharray: 7.2,5.4; stroke-dashoffset: 0; stroke: #94a3b8; stroke-width: 1.8; stroke-linecap: round"/>
    <path d="M 878.676 400.450644 
L 876.276 405.250644 
L 873.876 400.450644 
z
" clip-path="url(#p071d2165dc)" style="fill: #94a3b8; stroke-dasharray: 7.2,5.4; stroke-dashoffset: 0; stroke: #94a3b8; stroke-width: 1.8; stroke-linecap: round"/>
   </g>
   <g id="line2d_3">
    <path d="M 490.176 311.904 
L 490.176 285.408 
" clip-path="url(#p071d2165dc)" style="fill: none; stroke-dasharray: 7.2,5.4; stroke-dashoffset: 0; stroke: #94a3b8; stroke-width: 1.8"/>
   </g>
   <g id="line2d_4">
    <path d="M 490.176 285.408 
L 1001.232 285.408 
" clip-path="url(#p071d2165dc)" style="fill: none; stroke-dasharray: 7.2,5.4; stroke-dashoffset: 0; stroke: #94a3b8; stroke-width: 1.8"/>
   </g>
   <g id="patch_4">
    <path d="M 1001.232 289.408922 
Q 1001.232 298.656014 1001.232 305.890644 
" clip-path="url(#p071d2165dc)" style="fill: none; stroke-dasharray: 7.2,5.4; stroke-dashoffset: 0; stroke: #94a3b8; stroke-width: 1.8; stroke-linecap: round"/>
    <path d="M 1003.632 301.090644 
L 1001.232 305.890644 
L 998.832 301.090644 
z
" clip-path="url(#p071d2165dc)" style="fill: #94a3b8; stroke-dasharray: 7.2,5.4; stroke-dashoffset: 0; stroke: #94a3b8; stroke-width: 1.8; stroke-linecap: round"/>
   </g>
   <g id="line2d_5">
    <path d="M 365.22 212.544 
L 365.22 199.296 
" clip-path="url(#p071d2165dc)" style="fill: none; stroke-dasharray: 7.2,5.4; stroke-dashoffset: 0; stroke: #94a3b8; stroke-width: 1.8"/>
   </g>
   <g id="line2d_6">
    <path d="M 365.22 199.296 
L 1126.188 199.296 
" clip-path="url(#p071d2165dc)" style="fill: none; stroke-dasharray: 7.2,5.4; stroke-dashoffset: 0; stroke: #94a3b8; stroke-width: 1.8"/>
   </g>
   <g id="patch_5">
    <path d="M 1126.188 203.296922 
Q 1126.188 205.922496 1126.188 206.535609 
" clip-path="url(#p071d2165dc)" style="fill: none; stroke-dasharray: 7.2,5.4; stroke-dashoffset: 0; stroke: #94a3b8; stroke-width: 1.8; stroke-linecap: round"/>
    <path d="M 1128.588 201.735609 
L 1126.188 206.535609 
L 1123.788 201.735609 
z
" clip-path="url(#p071d2165dc)" style="fill: #94a3b8; stroke-dasharray: 7.2,5.4; stroke-dashoffset: 0; stroke: #94a3b8; stroke-width: 1.8; stroke-linecap: round"/>
   </g>
   <g id="patch_6">
    <path d="M 316.08 172.1376 
L 1175.328 172.1376 
Q 1189.368 172.1376 1189.368 165.5136 
L 1189.368 140.3424 
Q 1189.368 133.7184 1175.328 133.7184 
L 316.08 133.7184 
Q 302.04 133.7184 302.04 140.3424 
L 302.04 165.5136 
Q 302.04 172.1376 316.08 172.1376 
z
" clip-path="url(#p071d2165dc)" style="fill: #f6e9b9; stroke: #ba8d1f; stroke-width: 1.2; stroke-linejoin: miter"/>
   </g>
   <g id="line2d_7">
    <path d="M 365.22 169.488 
L 365.22 207.2448 
" clip-path="url(#p071d2165dc)" style="fill: none; stroke-dasharray: 2.6,2.6; stroke-dashoffset: 0; stroke: #ba8d1f; stroke-width: 1.3"/>
   </g>
   <g id="line2d_8">
    <path d="M 490.176 169.488 
L 490.176 306.6048 
" clip-path="url(#p071d2165dc)" style="fill: none; stroke-dasharray: 2.6,2.6; stroke-dashoffset: 0; stroke: #ba8d1f; stroke-width: 1.3"/>
   </g>
   <g id="line2d_9">
    <path d="M 615.132 169.488 
L 615.132 405.9648 
" clip-path="url(#p071d2165dc)" style="fill: none; stroke-dasharray: 2.6,2.6; stroke-dashoffset: 0; stroke: #ba8d1f; stroke-width: 1.3"/>
   </g>
   <g id="line2d_10">
    <path d="M 745.704 169.488 
L 745.704 505.3248 
" clip-path="url(#p071d2165dc)" style="fill: none; stroke-dasharray: 2.6,2.6; stroke-dashoffset: 0; stroke: #ba8d1f; stroke-width: 1.3"/>
   </g>
   <g id="line2d_11">
    <path d="M 876.276 169.488 
L 876.276 405.9648 
" clip-path="url(#p071d2165dc)" style="fill: none; stroke-dasharray: 2.6,2.6; stroke-dashoffset: 0; stroke: #ba8d1f; stroke-width: 1.3"/>
   </g>
   <g id="line2d_12">
    <path d="M 1001.232 169.488 
L 1001.232 306.6048 
" clip-path="url(#p071d2165dc)" style="fill: none; stroke-dasharray: 2.6,2.6; stroke-dashoffset: 0; stroke: #ba8d1f; stroke-width: 1.3"/>
   </g>
   <g id="line2d_13">
    <path d="M 1126.188 169.488 
L 1126.188 207.2448 
" clip-path="url(#p071d2165dc)" style="fill: none; stroke-dasharray: 2.6,2.6; stroke-dashoffset: 0; stroke: #ba8d1f; stroke-width: 1.3"/>
   </g>
   <g id="line2d_14">
    <path d="M 98.46 606.672 
L 196.74 606.672 
" clip-path="url(#p071d2165dc)" style="fill: none; stroke: #384454; stroke-width: 2; stroke-linecap: square"/>
   </g>
   <g id="line2d_15">
    <path d="M 98.46 619.92 
L 196.74 619.92 
" clip-path="url(#p071d2165dc)" style="fill: none; stroke-dasharray: 8,6; stroke-dashoffset: 0; stroke: #94a3b8; stroke-width: 2"/>
   </g>
   <g id="line2d_16">
    <path d="M 98.46 633.168 
L 196.74 633.168 
" clip-path="url(#p071d2165dc)" style="fill: none; stroke-dasharray: 4,4; stroke-dashoffset: 0; stroke: #ba8d1f; stroke-width: 2"/>
   </g>
   <g id="line2d_17">
    <path d="M 98.46 646.416 
L 196.74 646.416 
" clip-path="url(#p071d2165dc)" style="fill: none; stroke: #b45309; stroke-width: 2; stroke-linecap: square"/>
   </g>
   <g id="patch_7">
    <path d="M 43.704 315.8784 
L 146.196 315.8784 
Q 163.044 315.8784 163.044 307.9296 
L 163.044 216.5184 
Q 163.044 208.5696 146.196 208.5696 
L 43.704 208.5696 
Q 26.856 208.5696 26.856 216.5184 
L 26.856 307.9296 
Q 26.856 315.8784 43.704 315.8784 
z
" clip-path="url(#p071d2165dc)" style="fill: #eef2f7; stroke: #384454; stroke-width: 1.4; stroke-linejoin: miter"/>
   </g>
   <g id="patch_8">
    <path d="M 172.872 315.8784 
L 289.404 315.8784 
Q 306.252 315.8784 306.252 307.9296 
L 306.252 216.5184 
Q 306.252 208.5696 289.404 208.5696 
L 172.872 208.5696 
Q 156.024 208.5696 156.024 216.5184 
L 156.024 307.9296 
Q 156.024 315.8784 172.872 315.8784 
z
" clip-path="url(#p071d2165dc)" style="fill: #dceaf7; stroke: #384454; stroke-width: 1.4; stroke-linejoin: miter"/>
   </g>
   <g id="patch_9">
    <path d="M 316.08 315.8784 
L 414.36 315.8784 
Q 431.208 315.8784 431.208 307.9296 
L 431.208 216.5184 
Q 431.208 208.5696 414.36 208.5696 
L 316.08 208.5696 
Q 299.232 208.5696 299.232 216.5184 
L 299.232 307.9296 
Q 299.232 315.8784 316.08 315.8784 
z
" clip-path="url(#p071d2165dc)" style="fill: #d9eaf7; stroke: #384454; stroke-width: 1.4; stroke-linejoin: miter"/>
   </g>
   <g id="patch_10">
    <path d="M 441.036 415.2384 
L 539.316 415.2384 
Q 556.164 415.2384 556.164 407.2896 
L 556.164 315.8784 
Q 556.164 307.9296 539.316 307.9296 
L 441.036 307.9296 
Q 424.188 307.9296 424.188 315.8784 
L 424.188 407.2896 
Q 424.188 415.2384 441.036 415.2384 
z
" clip-path="url(#p071d2165dc)" style="fill: #d9eaf7; stroke: #384454; stroke-width: 1.4; stroke-linejoin: miter"/>
   </g>
   <g id="patch_11">
    <path d="M 565.992 514.5984 
L 664.272 514.5984 
Q 681.12 514.5984 681.12 506.6496 
L 681.12 415.2384 
Q 681.12 407.2896 664.272 407.2896 
L 565.992 407.2896 
Q 549.144 407.2896 549.144 415.2384 
L 549.144 506.6496 
Q 549.144 514.5984 565.992 514.5984 
z
" clip-path="url(#p071d2165dc)" style="fill: #d9eaf7; stroke: #384454; stroke-width: 1.4; stroke-linejoin: miter"/>
   </g>
   <g id="patch_12">
    <path d="M 690.948 613.9584 
L 800.46 613.9584 
Q 817.308 613.9584 817.308 606.0096 
L 817.308 514.5984 
Q 817.308 506.6496 800.46 506.6496 
L 690.948 506.6496 
Q 674.1 506.6496 674.1 514.5984 
L 674.1 606.0096 
Q 674.1 613.9584 690.948 613.9584 
z
" clip-path="url(#p071d2165dc)" style="fill: #f7e4c7; stroke: #384454; stroke-width: 1.4; stroke-linejoin: miter"/>
   </g>
   <g id="patch_13">
    <path d="M 827.136 514.5984 
L 925.416 514.5984 
Q 942.264 514.5984 942.264 506.6496 
L 942.264 415.2384 
Q 942.264 407.2896 925.416 407.2896 
L 827.136 407.2896 
Q 810.288 407.2896 810.288 415.2384 
L 810.288 506.6496 
Q 810.288 514.5984 827.136 514.5984 
z
" clip-path="url(#p071d2165dc)" style="fill: #ddefe4; stroke: #384454; stroke-width: 1.4; stroke-linejoin: miter"/>
   </g>
   <g id="patch_14">
    <path d="M 952.092 415.2384 
L 1050.372 415.2384 
Q 1067.22 415.2384 1067.22 407.2896 
L 1067.22 315.8784 
Q 1067.22 307.9296 1050.372 307.9296 
L 952.092 307.9296 
Q 935.244 307.9296 935.244 315.8784 
L 935.244 407.2896 
Q 935.244 415.2384 952.092 415.2384 
z
" clip-path="url(#p071d2165dc)" style="fill: #ddefe4; stroke: #384454; stroke-width: 1.4; stroke-linejoin: miter"/>
   </g>
   <g id="patch_15">
    <path d="M 1077.048 315.8784 
L 1175.328 315.8784 
Q 1192.176 315.8784 1192.176 307.9296 
L 1192.176 216.5184 
Q 1192.176 208.5696 1175.328 208.5696 
L 1077.048 208.5696 
Q 1060.2 208.5696 1060.2 216.5184 
L 1060.2 307.9296 
Q 1060.2 315.8784 1077.048 315.8784 
z
" clip-path="url(#p071d2165dc)" style="fill: #ddefe4; stroke: #384454; stroke-width: 1.4; stroke-linejoin: miter"/>
   </g>
   <g id="patch_16">
    <path d="M 1202.004 315.8784 
L 1339.596 315.8784 
Q 1356.444 315.8784 1356.444 307.9296 
L 1356.444 216.5184 
Q 1356.444 208.5696 1339.596 208.5696 
L 1202.004 208.5696 
Q 1185.156 208.5696 1185.156 216.5184 
L 1185.156 307.9296 
Q 1185.156 315.8784 1202.004 315.8784 
z
" clip-path="url(#p071d2165dc)" style="fill: #e9eef5; stroke: #384454; stroke-width: 1.4; stroke-linejoin: miter"/>
   </g>
   <g id="patch_17">
    <path d="M 158.617424 262.224 
Q 159.532722 262.224 158.211952 262.224 
" clip-path="url(#p071d2165dc)" style="fill: none; stroke: #384454; stroke-width: 2; stroke-linecap: round"/>
    <path d="M 153.411952 259.824 
L 158.211952 262.224 
L 153.411952 264.624 
z
" clip-path="url(#p071d2165dc)" style="fill: #384454; stroke: #384454; stroke-width: 2; stroke-linecap: round"/>
   </g>
   <g id="patch_18">
    <path d="M 301.825424 262.224 
Q 302.740722 262.224 301.419952 262.224 
" clip-path="url(#p071d2165dc)" style="fill: none; stroke: #384454; stroke-width: 2; stroke-linecap: round"/>
    <path d="M 296.619952 259.824 
L 301.419952 262.224 
L 296.619952 264.624 
z
" clip-path="url(#p071d2165dc)" style="fill: #384454; stroke: #384454; stroke-width: 2; stroke-linecap: round"/>
   </g>
   <g id="patch_19">
    <path d="M 423.177804 266.205313 
Q 427.698116 311.905175 431.998326 355.379828 
" clip-path="url(#p071d2165dc)" style="fill: none; stroke: #384454; stroke-width: 2; stroke-linecap: round"/>
    <path d="M 433.914194 350.3669 
L 431.998326 355.379828 
L 429.137505 350.839377 
z
" clip-path="url(#p071d2165dc)" style="fill: #384454; stroke: #384454; stroke-width: 2; stroke-linecap: round"/>
   </g>
   <g id="patch_20">
    <path d="M 548.133804 365.565313 
Q 552.654116 411.265175 556.954326 454.739828 
" clip-path="url(#p071d2165dc)" style="fill: none; stroke: #384454; stroke-width: 2; stroke-linecap: round"/>
    <path d="M 558.870194 449.7269 
L 556.954326 454.739828 
L 554.093505 450.199377 
z
" clip-path="url(#p071d2165dc)" style="fill: #384454; stroke: #384454; stroke-width: 2; stroke-linecap: round"/>
   </g>
   <g id="patch_21">
    <path d="M 673.089804 464.925313 
Q 677.610116 510.625175 681.910326 554.099828 
" clip-path="url(#p071d2165dc)" style="fill: none; stroke: #384454; stroke-width: 2; stroke-linecap: round"/>
    <path d="M 683.826194 549.0869 
L 681.910326 554.099828 
L 679.049505 549.559377 
z
" clip-path="url(#p071d2165dc)" style="fill: #384454; stroke: #384454; stroke-width: 2; stroke-linecap: round"/>
   </g>
   <g id="patch_22">
    <path d="M 809.277804 556.322687 
Q 813.798116 510.622825 818.098326 467.148172 
" clip-path="url(#p071d2165dc)" style="fill: none; stroke: #384454; stroke-width: 2; stroke-linecap: round"/>
    <path d="M 815.237505 471.688623 
L 818.098326 467.148172 
L 820.014194 472.1611 
z
" clip-path="url(#p071d2165dc)" style="fill: #384454; stroke: #384454; stroke-width: 2; stroke-linecap: round"/>
   </g>
   <g id="patch_23">
    <path d="M 934.233804 456.962687 
Q 938.754116 411.262825 943.054326 367.788172 
" clip-path="url(#p071d2165dc)" style="fill: none; stroke: #384454; stroke-width: 2; stroke-linecap: round"/>
    <path d="M 940.193505 372.328623 
L 943.054326 367.788172 
L 944.970194 372.8011 
z
" clip-path="url(#p071d2165dc)" style="fill: #384454; stroke: #384454; stroke-width: 2; stroke-linecap: round"/>
   </g>
   <g id="patch_24">
    <path d="M 1059.189804 357.602687 
Q 1063.710116 311.902825 1068.010326 268.428172 
" clip-path="url(#p071d2165dc)" style="fill: none; stroke: #384454; stroke-width: 2; stroke-linecap: round"/>
    <path d="M 1065.149505 272.968623 
L 1068.010326 268.428172 
L 1069.926194 273.4411 
z
" clip-path="url(#p071d2165dc)" style="fill: #384454; stroke: #384454; stroke-width: 2; stroke-linecap: round"/>
   </g>
   <g id="patch_25">
    <path d="M 1187.749424 262.224 
Q 1188.664722 262.224 1187.343952 262.224 
" clip-path="url(#p071d2165dc)" style="fill: none; stroke: #384454; stroke-width: 2; stroke-linecap: round"/>
    <path d="M 1182.543952 259.824 
L 1187.343952 262.224 
L 1182.543952 264.624 
z
" clip-path="url(#p071d2165dc)" style="fill: #384454; stroke: #384454; stroke-width: 2; stroke-linecap: round"/>
   </g>
   <g id="patch_26">
    <path d="M 71.784 123.7824 
L 195.336 123.7824 
Q 212.184 123.7824 212.184 115.8336 
L 212.184 70.7904 
Q 212.184 62.8416 195.336 62.8416 
L 71.784 62.8416 
Q 54.936 62.8416 54.936 70.7904 
L 54.936 115.8336 
Q 54.936 123.7824 71.784 123.7824 
z
" clip-path="url(#p071d2165dc)" style="fill: #f5f1de; stroke: #ba8d1f; stroke-width: 1.4; stroke-linejoin: miter"/>
   </g>
   <g id="patch_27">
    <path d="M 268.344 123.7824 
L 419.976 123.7824 
Q 436.824 123.7824 436.824 115.8336 
L 436.824 70.7904 
Q 436.824 62.8416 419.976 62.8416 
L 268.344 62.8416 
Q 251.496 62.8416 251.496 70.7904 
L 251.496 115.8336 
Q 251.496 123.7824 268.344 123.7824 
z
" clip-path="url(#p071d2165dc)" style="fill: #f5f1de; stroke: #ba8d1f; stroke-width: 1.4; stroke-linejoin: miter"/>
   </g>
   <g id="patch_28">
    <path d="M 478.944 123.7824 
L 630.576 123.7824 
Q 647.424 123.7824 647.424 115.8336 
L 647.424 70.7904 
Q 647.424 62.8416 630.576 62.8416 
L 478.944 62.8416 
Q 462.096 62.8416 462.096 70.7904 
L 462.096 115.8336 
Q 462.096 123.7824 478.944 123.7824 
z
" clip-path="url(#p071d2165dc)" style="fill: #f5f1de; stroke: #ba8d1f; stroke-width: 1.4; stroke-linejoin: miter"/>
   </g>
   <g id="patch_29">
    <path d="M 689.544 123.7824 
L 855.216 123.7824 
Q 872.064 123.7824 872.064 115.8336 
L 872.064 70.7904 
Q 872.064 62.8416 855.216 62.8416 
L 689.544 62.8416 
Q 672.696 62.8416 672.696 70.7904 
L 672.696 115.8336 
Q 672.696 123.7824 689.544 123.7824 
z
" clip-path="url(#p071d2165dc)" style="fill: #f5f1de; stroke: #ba8d1f; stroke-width: 1.4; stroke-linejoin: miter"/>
   </g>
   <g id="patch_30">
    <path d="M 914.184 123.7824 
L 1107.936 123.7824 
Q 1124.784 123.7824 1124.784 115.8336 
L 1124.784 70.7904 
Q 1124.784 62.8416 1107.936 62.8416 
L 914.184 62.8416 
Q 897.336 62.8416 897.336 70.7904 
L 897.336 115.8336 
Q 897.336 123.7824 914.184 123.7824 
z
" clip-path="url(#p071d2165dc)" style="fill: #f5f1de; stroke: #ba8d1f; stroke-width: 1.4; stroke-linejoin: miter"/>
   </g>
   <g id="patch_31">
    <path d="M 1166.904 123.7824 
L 1346.616 123.7824 
Q 1363.464 123.7824 1363.464 115.8336 
L 1363.464 70.7904 
Q 1363.464 62.8416 1346.616 62.8416 
L 1166.904 62.8416 
Q 1150.056 62.8416 1150.056 70.7904 
L 1150.056 115.8336 
Q 1150.056 123.7824 1166.904 123.7824 
z
" clip-path="url(#p071d2165dc)" style="fill: #fbe3d8; stroke: #b45309; stroke-width: 1.4; stroke-linejoin: miter"/>
   </g>
   <g id="patch_32">
    <path d="M 207.761237 93.312 
Q 337.141942 93.312 464.510186 93.312 
" clip-path="url(#p071d2165dc)" style="fill: none; stroke: #ba8d1f; stroke-width: 1.8; stroke-linecap: round"/>
    <path d="M 459.710186 90.912 
L 464.510186 93.312 
L 459.710186 95.712 
z
" clip-path="url(#p071d2165dc)" style="fill: #ba8d1f; stroke: #ba8d1f; stroke-width: 1.8; stroke-linecap: round"/>
   </g>
   <g id="patch_33">
    <path d="M 643.001237 93.312 
Q 772.381942 93.312 899.750186 93.312 
" clip-path="url(#p071d2165dc)" style="fill: none; stroke: #ba8d1f; stroke-width: 1.8; stroke-linecap: round"/>
    <path d="M 894.950186 90.912 
L 899.750186 93.312 
L 894.950186 95.712 
z
" clip-path="url(#p071d2165dc)" style="fill: #ba8d1f; stroke: #ba8d1f; stroke-width: 1.8; stroke-linecap: round"/>
   </g>
   <g id="patch_34">
    <path d="M 431.310146 90.566016 
Q 431.911172 89.998894 432.512198 89.431772 
" clip-path="url(#p071d2165dc)" style="fill: none; stroke: #ba8d1f; stroke-width: 1.8; stroke-linecap: round"/>
   </g>
   <g id="patch_35">
    <path d="M 439.420273 86.795846 
Q 558.269372 89.999983 675.106741 93.149884 
" clip-path="url(#p071d2165dc)" style="fill: none; stroke: #ba8d1f; stroke-width: 1.8; stroke-linecap: round"/>
    <path d="M 670.373164 90.621396 
L 675.106741 93.149884 
L 670.243804 95.419653 
z
" clip-path="url(#p071d2165dc)" style="fill: #ba8d1f; stroke: #ba8d1f; stroke-width: 1.8; stroke-linecap: round"/>
   </g>
   <g id="patch_36">
    <path d="M 439.422228 86.724665 
Q 796.950104 90.000001 1152.465604 93.256902 
" clip-path="url(#p071d2165dc)" style="fill: none; stroke: #ba8d1f; stroke-width: 1.8; stroke-linecap: round"/>
    <path d="M 1147.687791 90.813031 
L 1152.465604 93.256902 
L 1147.64382 95.61283 
z
" clip-path="url(#p071d2165dc)" style="fill: #ba8d1f; stroke: #ba8d1f; stroke-width: 1.8; stroke-linecap: round"/>
   </g>
   <g id="patch_37">
    <path d="M 867.637595 93.312 
Q 884.70007 93.312 899.750085 93.312 
" clip-path="url(#p071d2165dc)" style="fill: none; stroke: #ba8d1f; stroke-width: 1.8; stroke-linecap: round"/>
    <path d="M 894.950085 90.912 
L 899.750085 93.312 
L 894.950085 95.712 
z
" clip-path="url(#p071d2165dc)" style="fill: #ba8d1f; stroke: #ba8d1f; stroke-width: 1.8; stroke-linecap: round"/>
   </g>
   <g id="patch_38">
    <path d="M 1007.058902 119.915012 
Q 701.474459 128.088095 398.013521 136.204382 
" clip-path="url(#p071d2165dc)" style="fill: none; stroke-dasharray: 7.6,3.8; stroke-dashoffset: 0; stroke: #ba8d1f; stroke-width: 1.9; stroke-linecap: round"/>
    <path d="M 402.875972 138.475191 
L 398.013521 136.204382 
L 402.747638 133.676907 
z
" clip-path="url(#p071d2165dc)" style="fill: #ba8d1f; stroke-dasharray: 7.6,3.8; stroke-dashoffset: 0; stroke: #ba8d1f; stroke-width: 1.9; stroke-linecap: round"/>
   </g>
   <g id="text_1">
    <text style="fill: #0f172a; font: 700 19px 'DejaVu Serif'; text-anchor: middle" x="709.2" y="35.491734" transform="rotate(-0 709.2 35.491734)">Swin Flow Architecture and Conditioning Paths</text>
   </g>
   <g id="text_2">
    <text style="fill: #5b6474; font: 10.8px 'DejaVu Serif'; text-anchor: middle" x="709.2" y="53.085937" transform="rotate(-0 709.2 53.085937)">C=144, depths=[2, 2, 8, 2], heads=[4, 8, 16, 32], cond_fusion=concat, periodic_boundary=True, cross-attn=['bottleneck']</text>
   </g>
   <g id="patch_39">
    <path d="M 43.704 244.3392 
L 146.196 244.3392 
Q 163.044 244.3392 163.044 236.3904 
L 163.044 216.5184 
Q 163.044 208.5696 146.196 208.5696 
L 43.704 208.5696 
Q 26.856 208.5696 26.856 216.5184 
L 26.856 236.3904 
Q 26.856 244.3392 43.704 244.3392 
z
" clip-path="url(#p071d2165dc)" style="fill: #e3eaf2"/>
   </g>
   <g id="patch_40">
    <path d="M 172.872 244.3392 
L 289.404 244.3392 
Q 306.252 244.3392 306.252 236.3904 
L 306.252 216.5184 
Q 306.252 208.5696 289.404 208.5696 
L 172.872 208.5696 
Q 156.024 208.5696 156.024 216.5184 
L 156.024 236.3904 
Q 156.024 244.3392 172.872 244.3392 
z
" clip-path="url(#p071d2165dc)" style="fill: #c8ddf2"/>
   </g>
   <g id="patch_41">
    <path d="M 316.08 244.3392 
L 414.36 244.3392 
Q 431.208 244.3392 431.208 236.3904 
L 431.208 216.5184 
Q 431.208 208.5696 414.36 208.5696 
L 316.08 208.5696 
Q 299.232 208.5696 299.232 216.5184 
L 299.232 236.3904 
Q 299.232 244.3392 316.08 244.3392 
z
" clip-path="url(#p071d2165dc)" style="fill: #bcd8ee"/>
   </g>
   <g id="patch_42">
    <path d="M 441.036 343.6992 
L 539.316 343.6992 
Q 556.164 343.6992 556.164 335.7504 
L 556.164 315.8784 
Q 556.164 307.9296 539.316 307.9296 
L 441.036 307.9296 
Q 424.188 307.9296 424.188 315.8784 
L 424.188 335.7504 
Q 424.188 343.6992 441.036 343.6992 
z
" clip-path="url(#p071d2165dc)" style="fill: #bcd8ee"/>
   </g>
   <g id="patch_43">
    <path d="M 565.992 443.0592 
L 664.272 443.0592 
Q 681.12 443.0592 681.12 435.1104 
L 681.12 415.2384 
Q 681.12 407.2896 664.272 407.2896 
L 565.992 407.2896 
Q 549.144 407.2896 549.144 415.2384 
L 549.144 435.1104 
Q 549.144 443.0592 565.992 443.0592 
z
" clip-path="url(#p071d2165dc)" style="fill: #bcd8ee"/>
   </g>
   <g id="patch_44">
    <path d="M 690.948 542.4192 
L 800.46 542.4192 
Q 817.308 542.4192 817.308 534.4704 
L 817.308 514.5984 
Q 817.308 506.6496 800.46 506.6496 
L 690.948 506.6496 
Q 674.1 506.6496 674.1 514.5984 
L 674.1 534.4704 
Q 674.1 542.4192 690.948 542.4192 
z
" clip-path="url(#p071d2165dc)" style="fill: #f2d3a1"/>
   </g>
   <g id="patch_45">
    <path d="M 827.136 443.0592 
L 925.416 443.0592 
Q 942.264 443.0592 942.264 435.1104 
L 942.264 415.2384 
Q 942.264 407.2896 925.416 407.2896 
L 827.136 407.2896 
Q 810.288 407.2896 810.288 415.2384 
L 810.288 435.1104 
Q 810.288 443.0592 827.136 443.0592 
z
" clip-path="url(#p071d2165dc)" style="fill: #c9e3d4"/>
   </g>
   <g id="patch_46">
    <path d="M 952.092 343.6992 
L 1050.372 343.6992 
Q 1067.22 343.6992 1067.22 335.7504 
L 1067.22 315.8784 
Q 1067.22 307.9296 1050.372 307.9296 
L 952.092 307.9296 
Q 935.244 307.9296 935.244 315.8784 
L 935.244 335.7504 
Q 935.244 343.6992 952.092 343.6992 
z
" clip-path="url(#p071d2165dc)" style="fill: #c9e3d4"/>
   </g>
   <g id="patch_47">
    <path d="M 1077.048 244.3392 
L 1175.328 244.3392 
Q 1192.176 244.3392 1192.176 236.3904 
L 1192.176 216.5184 
Q 1192.176 208.5696 1175.328 208.5696 
L 1077.048 208.5696 
Q 1060.2 208.5696 1060.2 216.5184 
L 1060.2 236.3904 
Q 1060.2 244.3392 1077.048 244.3392 
z
" clip-path="url(#p071d2165dc)" style="fill: #c9e3d4"/>
   </g>
   <g id="patch_48">
    <path d="M 1202.004 244.3392 
L 1339.596 244.3392 
Q 1356.444 244.3392 1356.444 236.3904 
L 1356.444 216.5184 
Q 1356.444 208.5696 1339.596 208.5696 
L 1202.004 208.5696 
Q 1185.156 208.5696 1185.156 216.5184 
L 1185.156 236.3904 
Q 1185.156 244.3392 1202.004 244.3392 
z
" clip-path="url(#p071d2165dc)" style="fill: #d7dfea"/>
   </g>
   <g id="text_3">
    <text style="fill: #5b6474; font: italic 10.2px 'DejaVu Serif'" transform="translate(458.736666 319.889249) rotate(-332)">Downsampling path</text>
   </g>
   <g id="text_4">
    <text style="fill: #5b6474; font: italic 10.2px 'DejaVu Serif'" transform="translate(902.949117 364.975134) rotate(-28)">Upsampling path</text>
   </g>
   <g id="patch_49">
    <path d="M 71.784 85.62816 
L 195.336 85.62816 
Q 212.184 85.62816 212.184 77.67936 
L 212.184 70.7904 
Q 212.184 62.8416 195.336 62.8416 
L 71.784 62.8416 
Q 54.936 62.8416 54.936 70.7904 
L 54.936 77.67936 
Q 54.936 85.62816 71.784 85.62816 
z
" clip-path="url(#p071d2165dc)" style="fill: #e9dcad"/>
   </g>
   <g id="patch_50">
    <path d="M 268.344 85.62816 
L 419.976 85.62816 
Q 436.824 85.62816 436.824 77.67936 
L 436.824 70.7904 
Q 436.824 62.8416 419.976 62.8416 
L 268.344 62.8416 
Q 251.496 62.8416 251.496 70.7904 
L 251.496 77.67936 
Q 251.496 85.62816 268.344 85.62816 
z
" clip-path="url(#p071d2165dc)" style="fill: #e9dcad"/>
   </g>
   <g id="patch_51">
    <path d="M 478.944 85.62816 
L 630.576 85.62816 
Q 647.424 85.62816 647.424 77.67936 
L 647.424 70.7904 
Q 647.424 62.8416 630.576 62.8416 
L 478.944 62.8416 
Q 462.096 62.8416 462.096 70.7904 
L 462.096 77.67936 
Q 462.096 85.62816 478.944 85.62816 
z
" clip-path="url(#p071d2165dc)" style="fill: #e9dcad"/>
   </g>
   <g id="patch_52">
    <path d="M 689.544 85.62816 
L 855.216 85.62816 
Q 872.064 85.62816 872.064 77.67936 
L 872.064 70.7904 
Q 872.064 62.8416 855.216 62.8416 
L 689.544 62.8416 
Q 672.696 62.8416 672.696 70.7904 
L 672.696 77.67936 
Q 672.696 85.62816 689.544 85.62816 
z
" clip-path="url(#p071d2165dc)" style="fill: #e9dcad"/>
   </g>
   <g id="patch_53">
    <path d="M 914.184 85.62816 
L 1107.936 85.62816 
Q 1124.784 85.62816 1124.784 77.67936 
L 1124.784 70.7904 
Q 1124.784 62.8416 1107.936 62.8416 
L 914.184 62.8416 
Q 897.336 62.8416 897.336 70.7904 
L 897.336 77.67936 
Q 897.336 85.62816 914.184 85.62816 
z
" clip-path="url(#p071d2165dc)" style="fill: #e9dcad"/>
   </g>
   <g id="patch_54">
    <path d="M 1166.904 85.62816 
L 1346.616 85.62816 
Q 1363.464 85.62816 1363.464 77.67936 
L 1363.464 70.7904 
Q 1363.464 62.8416 1346.616 62.8416 
L 1166.904 62.8416 
Q 1150.056 62.8416 1150.056 70.7904 
L 1150.056 77.67936 
Q 1150.056 85.62816 1166.904 85.62816 
z
" clip-path="url(#p071d2165dc)" style="fill: #f3cdb8"/>
   </g>
   <g id="text_5">
    <text style="fill: #14213d; font: 700 9.4px 'DejaVu Serif'; text-anchor: middle" x="745.704" y="155.454984" transform="rotate(-0 745.704 155.454984)">Global conditioning to all Swin blocks via AdaLN-Zero (B x 576)</text>
   </g>
   <g id="patch_55">
    <path d="M 1253.582276 122.238077 
Q 1001.233745 315.214666 750.83906 506.697104 
" clip-path="url(#p071d2165dc)" style="fill: none; stroke: #b45309; stroke-width: 2.2; stroke-linecap: round"/>
    <path d="M 756.109847 505.687747 
L 750.83906 506.697104 
L 753.194047 501.87486 
z
" clip-path="url(#p071d2165dc)" style="fill: #b45309; stroke: #b45309; stroke-width: 2.2; stroke-linecap: round"/>
   </g>
   <g id="text_6">
    <text style="fill: #0f172a; font: 700 10px 'DejaVu Serif'; text-anchor: start" x="105.48" y="592.137881" transform="rotate(-0 105.48 592.137881)">Legend</text>
   </g>
   <g id="text_7">
    <text style="fill: #14213d; font: 8.5px 'DejaVu Serif'; text-anchor: start" x="213.588" y="609.017469" transform="rotate(-0 213.588 609.017469)">Main data flow</text>
   </g>
   <g id="text_8">
    <text style="fill: #14213d; font: 8.5px 'DejaVu Serif'; text-anchor: start" x="213.588" y="622.265469" transform="rotate(-0 213.588 622.265469)">U-Net skip connection</text>
   </g>
   <g id="text_9">
    <text style="fill: #14213d; font: 8.5px 'DejaVu Serif'; text-anchor: start" x="213.588" y="635.453039" transform="rotate(-0 213.588 635.453039)">Global AdaLN conditioning</text>
   </g>
   <g id="text_10">
    <text style="fill: #14213d; font: 8.5px 'DejaVu Serif'; text-anchor: start" x="213.588" y="648.761469" transform="rotate(-0 213.588 648.761469)">Bottleneck cross-attention</text>
   </g>
   <g id="text_11">
    <text style="fill: #5b6474; font: 8.5px 'DejaVu Serif'; text-anchor: end" x="1362.06" y="612.211266" transform="rotate(-0 1362.06 612.211266)">Config details: stem_type=conv2x_periodic, output_head=linear, channel_se=True (reduction=4), window_size=8, dropout=0.1</text>
   </g>
   <g id="text_12">
    <text style="fill: #0f172a; font: 700 10.5px 'DejaVu Serif'; text-anchor: middle" x="94.95" y="229.351744" transform="rotate(-0 94.95 229.351744)">Input Fields</text>
   </g>
   <g id="text_13">
    <text style="fill: #14213d; font: 8.6px 'DejaVu Serif'; text-anchor: start" x="40.0536" y="260.622662" transform="rotate(-0 40.0536 260.622662)">x: B x 3 x 256 x 256</text>
   </g>
   <g id="text_14">
    <text style="fill: #14213d; font: 8.6px 'DejaVu Serif'; text-anchor: start" x="40.0536" y="281.427122" transform="rotate(-0 40.0536 281.427122)">Flow target image</text>
   </g>
   <g id="text_15">
    <text style="fill: #0f172a; font: 700 10.5px 'DejaVu Serif'; text-anchor: middle" x="231.138" y="229.351744" transform="rotate(-0 231.138 229.351744)">Conv Stem</text>
   </g>
   <g id="text_16">
    <text style="fill: #14213d; font: 8.6px 'DejaVu Serif'; text-anchor: start" x="169.7832" y="260.622662" transform="rotate(-0 169.7832 260.622662)">Periodic stem: 3 -&gt; 32 -&gt; 144</text>
   </g>
   <g id="text_17">
    <text style="fill: #14213d; font: 8.6px 'DejaVu Serif'; text-anchor: start" x="169.7832" y="281.488262" transform="rotate(-0 169.7832 281.488262)">Output tokens: 64 x 64</text>
   </g>
   <g id="text_18">
    <text style="fill: #14213d; font: 8.6px 'DejaVu Serif'; text-anchor: start" x="169.7832" y="302.353862" transform="rotate(-0 169.7832 302.353862)">Tensor: B x 4096 x 144</text>
   </g>
   <g id="text_19">
    <text style="fill: #0f172a; font: 700 10.5px 'DejaVu Serif'; text-anchor: middle" x="365.22" y="229.351744" transform="rotate(-0 365.22 229.351744)">Encoder 0</text>
   </g>
   <g id="text_20">
    <text style="fill: #14213d; font: 8.6px 'DejaVu Serif'; text-anchor: start" x="312.26112" y="260.622662" transform="rotate(-0 312.26112 260.622662)">64 x 64 tokens, C=144</text>
   </g>
   <g id="text_21">
    <text style="fill: #14213d; font: 8.6px 'DejaVu Serif'; text-anchor: start" x="312.26112" y="281.488262" transform="rotate(-0 312.26112 281.488262)">depth=2, heads=4</text>
   </g>
   <g id="text_22">
    <text style="fill: #14213d; font: 8.6px 'DejaVu Serif'; text-anchor: start" x="312.26112" y="302.353862" transform="rotate(-0 312.26112 302.353862)">Periodic Swin + SE</text>
   </g>
   <g id="text_23">
    <text style="fill: #0f172a; font: 700 10.5px 'DejaVu Serif'; text-anchor: middle" x="490.176" y="328.711744" transform="rotate(-0 490.176 328.711744)">Encoder 1</text>
   </g>
   <g id="text_24">
    <text style="fill: #14213d; font: 8.6px 'DejaVu Serif'; text-anchor: start" x="437.21712" y="359.982662" transform="rotate(-0 437.21712 359.982662)">32 x 32 tokens, C=288</text>
   </g>
   <g id="text_25">
    <text style="fill: #14213d; font: 8.6px 'DejaVu Serif'; text-anchor: start" x="437.21712" y="380.848262" transform="rotate(-0 437.21712 380.848262)">depth=2, heads=8</text>
   </g>
   <g id="text_26">
    <text style="fill: #14213d; font: 8.6px 'DejaVu Serif'; text-anchor: start" x="437.21712" y="401.713862" transform="rotate(-0 437.21712 401.713862)">Periodic Swin + SE</text>
   </g>
   <g id="text_27">
    <text style="fill: #0f172a; font: 700 10.5px 'DejaVu Serif'; text-anchor: middle" x="615.132" y="428.071744" transform="rotate(-0 615.132 428.071744)">Encoder 2</text>
   </g>
   <g id="text_28">
    <text style="fill: #14213d; font: 8.6px 'DejaVu Serif'; text-anchor: start" x="562.17312" y="459.342662" transform="rotate(-0 562.17312 459.342662)">16 x 16 tokens, C=576</text>
   </g>
   <g id="text_29">
    <text style="fill: #14213d; font: 8.6px 'DejaVu Serif'; text-anchor: start" x="562.17312" y="480.208262" transform="rotate(-0 562.17312 480.208262)">depth=8, heads=16</text>
   </g>
   <g id="text_30">
    <text style="fill: #14213d; font: 8.6px 'DejaVu Serif'; text-anchor: start" x="562.17312" y="501.073862" transform="rotate(-0 562.17312 501.073862)">Periodic Swin + SE</text>
   </g>
   <g id="text_31">
    <text style="fill: #0f172a; font: 700 10.5px 'DejaVu Serif'; text-anchor: middle" x="745.704" y="527.431744" transform="rotate(-0 745.704 527.431744)">Bottleneck</text>
   </g>
   <g id="text_32">
    <text style="fill: #14213d; font: 8.6px 'DejaVu Serif'; text-anchor: start" x="687.5784" y="558.702662" transform="rotate(-0 687.5784 558.702662)">8 x 8 tokens, C=1152</text>
   </g>
   <g id="text_33">
    <text style="fill: #14213d; font: 8.6px 'DejaVu Serif'; text-anchor: start" x="687.5784" y="579.568262" transform="rotate(-0 687.5784 579.568262)">depth=2, heads=32</text>
   </g>
   <g id="text_34">
    <text style="fill: #14213d; font: 8.6px 'DejaVu Serif'; text-anchor: start" x="687.5784" y="600.433862" transform="rotate(-0 687.5784 600.433862)">Periodic Swin + SE + cond x-attn</text>
   </g>
   <g id="text_35">
    <text style="fill: #0f172a; font: 700 10.5px 'DejaVu Serif'; text-anchor: middle" x="876.276" y="428.071744" transform="rotate(-0 876.276 428.071744)">Decoder 2</text>
   </g>
   <g id="text_36">
    <text style="fill: #14213d; font: 8.6px 'DejaVu Serif'; text-anchor: start" x="823.31712" y="459.342662" transform="rotate(-0 823.31712 459.342662)">16 x 16 tokens, C=576</text>
   </g>
   <g id="text_37">
    <text style="fill: #14213d; font: 8.6px 'DejaVu Serif'; text-anchor: start" x="823.31712" y="480.208262" transform="rotate(-0 823.31712 480.208262)">depth=8, heads=16</text>
   </g>
   <g id="text_38">
    <text style="fill: #14213d; font: 8.6px 'DejaVu Serif'; text-anchor: start" x="823.31712" y="501.073862" transform="rotate(-0 823.31712 501.073862)">PatchExpand + skip + SE</text>
   </g>
   <g id="text_39">
    <text style="fill: #0f172a; font: 700 10.5px 'DejaVu Serif'; text-anchor: middle" x="1001.232" y="328.711744" transform="rotate(-0 1001.232 328.711744)">Decoder 1</text>
   </g>
   <g id="text_40">
    <text style="fill: #14213d; font: 8.6px 'DejaVu Serif'; text-anchor: start" x="948.27312" y="359.982662" transform="rotate(-0 948.27312 359.982662)">32 x 32 tokens, C=288</text>
   </g>
   <g id="text_41">
    <text style="fill: #14213d; font: 8.6px 'DejaVu Serif'; text-anchor: start" x="948.27312" y="380.848262" transform="rotate(-0 948.27312 380.848262)">depth=2, heads=8</text>
   </g>
   <g id="text_42">
    <text style="fill: #14213d; font: 8.6px 'DejaVu Serif'; text-anchor: start" x="948.27312" y="401.713862" transform="rotate(-0 948.27312 401.713862)">PatchExpand + skip + SE</text>
   </g>
   <g id="text_43">
    <text style="fill: #0f172a; font: 700 10.5px 'DejaVu Serif'; text-anchor: middle" x="1126.188" y="229.351744" transform="rotate(-0 1126.188 229.351744)">Decoder 0</text>
   </g>
   <g id="text_44">
    <text style="fill: #14213d; font: 8.6px 'DejaVu Serif'; text-anchor: start" x="1073.22912" y="260.622662" transform="rotate(-0 1073.22912 260.622662)">64 x 64 tokens, C=144</text>
   </g>
   <g id="text_45">
    <text style="fill: #14213d; font: 8.6px 'DejaVu Serif'; text-anchor: start" x="1073.22912" y="281.488262" transform="rotate(-0 1073.22912 281.488262)">depth=2, heads=4</text>
   </g>
   <g id="text_46">
    <text style="fill: #14213d; font: 8.6px 'DejaVu Serif'; text-anchor: start" x="1073.22912" y="302.353862" transform="rotate(-0 1073.22912 302.353862)">PatchExpand + skip + SE</text>
   </g>
   <g id="text_47">
    <text style="fill: #0f172a; font: 700 10.5px 'DejaVu Serif'; text-anchor: middle" x="1270.8" y="229.351744" transform="rotate(-0 1270.8 229.351744)">Linear Head</text>
   </g>
   <g id="text_48">
    <text style="fill: #14213d; font: 8.6px 'DejaVu Serif'; text-anchor: start" x="1199.7576" y="260.561522" transform="rotate(-0 1199.7576 260.561522)">Two PatchExpand stages</text>
   </g>
   <g id="text_49">
    <text style="fill: #14213d; font: 8.6px 'DejaVu Serif'; text-anchor: start" x="1199.7576" y="281.365981" transform="rotate(-0 1199.7576 281.365981)">LayerNorm + Linear 36 -&gt; 3</text>
   </g>
   <g id="text_50">
    <text style="fill: #14213d; font: 8.6px 'DejaVu Serif'; text-anchor: start" x="1199.7576" y="302.353862" transform="rotate(-0 1199.7576 302.353862)">Output: B x 3 x 256 x 256</text>
   </g>
   <g id="text_51">
    <text style="fill: #94a3b8; font: 8px 'DejaVu Serif'; text-anchor: middle" x="745.704" y="374.49305" transform="rotate(-0 745.704 374.49305)">skip: 16 x 16, C=576</text>
   </g>
   <g id="text_52">
    <text style="fill: #94a3b8; font: 8px 'DejaVu Serif'; text-anchor: middle" x="745.704" y="275.13305" transform="rotate(-0 745.704 275.13305)">skip: 32 x 32, C=288</text>
   </g>
   <g id="text_53">
    <text style="fill: #94a3b8; font: 8px 'DejaVu Serif'; text-anchor: middle" x="745.704" y="189.02105" transform="rotate(-0 745.704 189.02105)">skip: 64 x 64, C=144</text>
   </g>
   <g id="text_54">
    <text style="fill: #14213d; font: 700 10.5px 'DejaVu Serif'; text-anchor: middle" x="133.56" y="77.132224" transform="rotate(-0 133.56 77.132224)">Time Input</text>
   </g>
   <g id="text_55">
    <text style="fill: #14213d; font: 8.2px 'DejaVu Serif'; text-anchor: start" x="68.976" y="93.455007" transform="rotate(-0 68.976 93.455007)">t: B</text>
   </g>
   <g id="text_56">
    <text style="fill: #14213d; font: 8.2px 'DejaVu Serif'; text-anchor: start" x="68.976" y="104.583327" transform="rotate(-0 68.976 104.583327)">Continuous flow time</text>
   </g>
   <g id="text_57">
    <text style="fill: #14213d; font: 700 10.5px 'DejaVu Serif'; text-anchor: middle" x="344.16" y="77.132224" transform="rotate(-0 344.16 77.132224)">Condition Input</text>
   </g>
   <g id="text_58">
    <text style="fill: #14213d; font: 8.2px 'DejaVu Serif'; text-anchor: start" x="266.6592" y="93.455007" transform="rotate(-0 266.6592 93.455007)">theta: B x 6</text>
   </g>
   <g id="text_59">
    <text style="fill: #14213d; font: 8.2px 'DejaVu Serif'; text-anchor: start" x="266.6592" y="104.525031" transform="rotate(-0 266.6592 104.525031)">Six cosmology scalars</text>
   </g>
   <g id="text_60">
    <text style="fill: #0f172a; font: 700 10.5px 'DejaVu Serif'; text-anchor: middle" x="554.76" y="77.057575" transform="rotate(-0 554.76 77.057575)">TimestepEmbedding</text>
   </g>
   <g id="text_61">
    <text style="fill: #14213d; font: 8.2px 'DejaVu Serif'; text-anchor: start" x="477.2592" y="93.455007" transform="rotate(-0 477.2592 93.455007)">Sinusoidal + MLP</text>
   </g>
   <g id="text_62">
    <text style="fill: #14213d; font: 8.2px 'DejaVu Serif'; text-anchor: start" x="477.2592" y="104.583327" transform="rotate(-0 477.2592 104.583327)">B x 576</text>
   </g>
   <g id="text_63">
    <text style="fill: #0f172a; font: 700 10.5px 'DejaVu Serif'; text-anchor: middle" x="772.38" y="77.057575" transform="rotate(-0 772.38 77.057575)">ConditionEmbedding</text>
   </g>
   <g id="text_64">
    <text style="fill: #14213d; font: 8.2px 'DejaVu Serif'; text-anchor: start" x="688.4208" y="93.396711" transform="rotate(-0 688.4208 93.396711)">4-layer MLP</text>
   </g>
   <g id="text_65">
    <text style="fill: #14213d; font: 8.2px 'DejaVu Serif'; text-anchor: start" x="688.4208" y="104.583327" transform="rotate(-0 688.4208 104.583327)">B x 576</text>
   </g>
   <g id="text_66">
    <text style="fill: #0f172a; font: 700 10.5px 'DejaVu Serif'; text-anchor: middle" x="1011.06" y="77.057575" transform="rotate(-0 1011.06 77.057575)">JointEmbedding</text>
   </g>
   <g id="text_67">
    <text style="fill: #14213d; font: 8.2px 'DejaVu Serif'; text-anchor: start" x="914.184" y="93.340976" transform="rotate(-0 914.184 93.340976)">concat([t_emb, c_emb])</text>
   </g>
   <g id="text_68">
    <text style="fill: #14213d; font: 8.2px 'DejaVu Serif'; text-anchor: start" x="914.184" y="104.583327" transform="rotate(-0 914.184 104.583327)">Global emb: B x 576</text>
   </g>
   <g id="text_69">
    <text style="fill: #0f172a; font: 700 10.5px 'DejaVu Serif'; text-anchor: middle" x="1256.76" y="77.057575" transform="rotate(-0 1256.76 77.057575)">ConditionTokenEmbedding</text>
   </g>
   <g id="text_70">
    <text style="fill: #14213d; font: 8px 'DejaVu Serif'; text-anchor: start" x="1166.3424" y="93.39982" transform="rotate(-0 1166.3424 93.39982)">6 scalar tokens, depth=1</text>
   </g>
   <g id="text_71">
    <text style="fill: #14213d; font: 8px 'DejaVu Serif'; text-anchor: start" x="1166.3424" y="104.52814" transform="rotate(-0 1166.3424 104.52814)">B x 6 x 576</text>
   </g>
   <g id="text_72">
    <text style="fill: #b45309; font: 8.3px 'DejaVu Serif'" transform="translate(1161.288 241.972097)">Cross-attn at bottleneck</text>
    <text style="fill: #b45309; font: 8.3px 'DejaVu Serif'" transform="translate(1161.288 251.266281)">Q: 64 feature tokens (1152)</text>
    <text style="fill: #b45309; font: 8.3px 'DejaVu Serif'" transform="translate(1161.288 260.560466)">K,V: 6 cond tokens (576)</text>
   </g>
   <g id="text_73">
    <g id="patch_56">
     <path d="M 395.30475 280.203455 
L 454.47525 280.203455 
Q 456.09525 280.203455 456.09525 278.583455 
L 456.09525 252.373373 
Q 456.09525 250.753373 454.47525 250.753373 
L 395.30475 250.753373 
Q 393.68475 250.753373 393.68475 252.373373 
L 393.68475 278.583455 
Q 393.68475 280.203455 395.30475 280.203455 
z
" style="fill: #ffffff; opacity: 0.92"/>
    </g>
    <text style="fill: #5b6474; font: 8.1px 'DejaVu Serif'" transform="translate(399.959086 258.64328)">PatchMerge</text>
    <text style="fill: #5b6474; font: 8.1px 'DejaVu Serif'" transform="translate(395.30475 267.82868)">64^2 -&gt; 32^2</text>
    <text style="fill: #5b6474; font: 8.1px 'DejaVu Serif'" transform="translate(402.092297 276.898908)">144 -&gt; 288</text>
   </g>
   <g id="text_74">
    <g id="patch_57">
     <path d="M 520.26075 379.563455 
L 579.43125 379.563455 
Q 581.05125 379.563455 581.05125 377.943455 
L 581.05125 351.733373 
Q 581.05125 350.113373 579.43125 350.113373 
L 520.26075 350.113373 
Q 518.64075 350.113373 518.64075 351.733373 
L 518.64075 377.943455 
Q 518.64075 379.563455 520.26075 379.563455 
z
" style="fill: #ffffff; opacity: 0.92"/>
    </g>
    <text style="fill: #5b6474; font: 8.1px 'DejaVu Serif'" transform="translate(524.915086 358.00328)">PatchMerge</text>
    <text style="fill: #5b6474; font: 8.1px 'DejaVu Serif'" transform="translate(520.26075 367.18868)">32^2 -&gt; 16^2</text>
    <text style="fill: #5b6474; font: 8.1px 'DejaVu Serif'" transform="translate(527.048297 376.258908)">288 -&gt; 576</text>
   </g>
   <g id="text_75">
    <g id="patch_58">
     <path d="M 647.793563 485.547455 
L 701.810438 485.547455 
Q 703.430438 485.547455 703.430438 483.927455 
L 703.430438 457.717373 
Q 703.430438 456.097373 701.810438 456.097373 
L 647.793563 456.097373 
Q 646.173563 456.097373 646.173563 457.717373 
L 646.173563 483.927455 
Q 646.173563 485.547455 647.793563 485.547455 
z
" style="fill: #ffffff; opacity: 0.92"/>
    </g>
    <text style="fill: #5b6474; font: 8.1px 'DejaVu Serif'" transform="translate(649.871086 463.98728)">PatchMerge</text>
    <text style="fill: #5b6474; font: 8.1px 'DejaVu Serif'" transform="translate(647.793563 473.17268)">16^2 -&gt; 8^2</text>
    <text style="fill: #5b6474; font: 8.1px 'DejaVu Serif'" transform="translate(649.427484 482.242908)">576 -&gt; 1152</text>
   </g>
   <g id="text_76">
    <g id="patch_59">
     <path d="M 789.597563 571.601869 
L 843.614438 571.601869 
Q 845.234438 571.601869 845.234438 569.981869 
L 845.234438 544.002131 
Q 845.234438 542.382131 843.614438 542.382131 
L 789.597563 542.382131 
Q 787.977563 542.382131 787.977563 544.002131 
L 787.977563 569.981869 
Q 787.977563 571.601869 789.597563 571.601869 
z
" style="fill: #ffffff; opacity: 0.92"/>
    </g>
    <text style="fill: #5b6474; font: 8.1px 'DejaVu Serif'" transform="translate(789.695648 550.156866)">PatchExpand</text>
    <text style="fill: #5b6474; font: 8.1px 'DejaVu Serif'" transform="translate(789.597563 559.227094)">8^2 -&gt; 16^2</text>
    <text style="fill: #5b6474; font: 8.1px 'DejaVu Serif'" transform="translate(791.231484 568.297322)">1152 -&gt; 576</text>
   </g>
   <g id="text_77">
    <g id="patch_60">
     <path d="M 911.97675 472.241869 
L 971.14725 472.241869 
Q 972.76725 472.241869 972.76725 470.621869 
L 972.76725 444.642131 
Q 972.76725 443.022131 971.14725 443.022131 
L 911.97675 443.022131 
Q 910.35675 443.022131 910.35675 444.642131 
L 910.35675 470.621869 
Q 910.35675 472.241869 911.97675 472.241869 
z
" style="fill: #ffffff; opacity: 0.92"/>
    </g>
    <text style="fill: #5b6474; font: 8.1px 'DejaVu Serif'" transform="translate(914.651648 450.796866)">PatchExpand</text>
    <text style="fill: #5b6474; font: 8.1px 'DejaVu Serif'" transform="translate(911.97675 459.867094)">16^2 -&gt; 32^2</text>
    <text style="fill: #5b6474; font: 8.1px 'DejaVu Serif'" transform="translate(918.764297 468.937322)">576 -&gt; 288</text>
   </g>
   <g id="text_78">
    <g id="patch_61">
     <path d="M 1036.93275 372.881869 
L 1096.10325 372.881869 
Q 1097.72325 372.881869 1097.72325 371.261869 
L 1097.72325 345.282131 
Q 1097.72325 343.662131 1096.10325 343.662131 
L 1036.93275 343.662131 
Q 1035.31275 343.662131 1035.31275 345.282131 
L 1035.31275 371.261869 
Q 1035.31275 372.881869 1036.93275 372.881869 
z
" style="fill: #ffffff; opacity: 0.92"/>
    </g>
    <text style="fill: #5b6474; font: 8.1px 'DejaVu Serif'" transform="translate(1039.607648 351.436866)">PatchExpand</text>
    <text style="fill: #5b6474; font: 8.1px 'DejaVu Serif'" transform="translate(1036.93275 360.507094)">32^2 -&gt; 64^2</text>
    <text style="fill: #5b6474; font: 8.1px 'DejaVu Serif'" transform="translate(1043.720297 369.577322)">288 -&gt; 144</text>
   </g>
  </g>
 </g>
 <defs>
  <clipPath id="p071d2165dc">
   <rect x="7.2" y="7.2" width="1404" height="662.4"/>
  </clipPath>
 </defs>
</svg>
